# xmcd CD database file
#
# Track frame offsets:
#	150
#	32905
#	52589
#	73136
#	91330
#	113519
#	127693
#	146504
#	180194
#	197427
#	213134
#
# Disc length: 3136 seconds
#
# Revision: 0
# Processed by: cddbd v1.5.2PL0 Copyright (c) Steve Scherf et al.
# Submitted via: CDex 1.51
#
DISCID=830c3e0b
DTITLE=Mike Welch - Cryin' Hey ! Monster Mike Welch Plays The Blues
DYEAR=2005
DGENRE=Blues
TTITLE0=All The Love In The World
TTITLE1=Cryin' Hey
TTITLE2=A Thrill To Be Alive
TTITLE3=Joaquin Riley
TTITLE4=My Father's Son
TTITLE5=They Call Me Monster Mike
TTITLE6=Everybody
TTITLE7=One Of These Days
TTITLE8=Searching For An Angel
TTITLE9=Just Like A Fool
TTITLE10=Give Me Time
EXTD=YEAR: 2005
EXTT0=
EXTT1=
EXTT2=
EXTT3=
EXTT4=
EXTT5=
EXTT6=
EXTT7=
EXTT8=
EXTT9=
EXTT10=
PLAYORDER=
